<?xml version="1.0" encoding="UTF-8"?><svg id="a" xmlns="http://www.w3.org/2000/svg" viewBox="0 0 191.72 167.96"><defs><style>.b{fill:#f05c55;}.c,.d{fill:#fff;}.e{fill:none;stroke:#fff;stroke-miterlimit:10;}.e,.d{stroke-width:2px;}.d{stroke:#f05c55;stroke-linecap:round;stroke-miterlimit:1;}</style></defs><circle class="b" cx="95.33" cy="83.98" r="83.98"/><g><path class="c" d="M49.56,26.91c1.89,2.07,1.59,4.75-.22,6.41-2.03,1.85-5.12,1.71-6.92-.27-1.81-1.98-1.69-5.09,.29-6.9,.88-.8,2.27-1.29,3.51-1.25l.22,1.47c-1.04-.04-2.08,.3-2.74,.9-1.27,1.16-1.5,3.33-.18,4.77,1.25,1.37,3.36,1.5,4.85,.14,1.2-1.1,1.43-2.65,.46-3.71l-.02-.02-2.16,1.97-.92-1,3.3-3.02c.16,.14,.35,.32,.53,.52Z"/><path class="c" d="M58.34,26.19l-4.16-1.59-.96,.65,2.06,3.02-1.22,.84-5.33-7.8,2.42-1.65c1.45-.99,3.4-.69,4.35,.7,.69,1.01,.64,2.32-.06,3.22l4.4,1.57-1.5,1.03Zm-4.59-2.78c.74-.5,.95-1.51,.47-2.21-.5-.73-1.48-.84-2.21-.34l-1.23,.84,1.74,2.55,1.23-.84Z"/><path class="c" d="M65.8,20.46l-3.99,2.01,.07,1.57-1.43,.72-.36-10.61,.08-.04,8.3,6.62-1.43,.72-1.22-.99Zm-1.08-.88l-3.14-2.55,.17,4.05,2.97-1.49Z"/><path class="c" d="M66.84,11.31l2.98-1.03c1.73-.59,3.59,.24,4.15,1.86,.55,1.59-.42,3.37-2.15,3.97l-1.58,.55,1.07,3.1-1.4,.48-3.08-8.92Zm5.73,1.31c-.29-.85-1.31-1.28-2.27-.95l-1.58,.55,1.05,3.05,1.58-.54c.96-.32,1.51-1.27,1.22-2.11Z"/><path class="c" d="M82.68,6.98l1.92,9.25-1.45,.3-.81-3.91-4.01,.83,.81,3.91-1.45,.3-1.92-9.25,1.45-.3,.81,3.9,4.01-.83-.81-3.9,1.45-.3Z"/><path class="c" d="M85.93,6.62l1.47-.16,1.02,9.38-1.47,.16-1.02-9.38Z"/><path class="c" d="M90.31,10.85c-.02-2.66,2.18-4.91,4.83-4.93,1.22,0,2.36,.52,3.29,1.41l-.85,1.17c-.67-.66-1.53-1.09-2.46-1.08-1.71,.01-3.33,1.53-3.32,3.42,.02,1.9,1.69,3.36,3.38,3.35,.97,0,1.8-.5,2.44-1.15l.87,1.19c-.81,.81-1.84,1.43-3.25,1.45-2.68,.02-4.92-2.16-4.94-4.83Z"/><path class="c" d="M112.64,12.85c-.54,2.85-2.72,4.28-5.67,3.72l-2.64-.5,1.77-9.29,2.65,.5c2.95,.56,4.45,2.69,3.9,5.57Zm-1.47-.29c.38-1.97-.67-3.45-2.71-3.84l-1.19-.23-1.22,6.39,1.2,.23c2.03,.39,3.54-.6,3.91-2.56Z"/><path class="c" d="M117.41,10.88l-.75,2.3,3.4,1.1-.45,1.41-3.4-1.1-.8,2.49,3.94,1.28-.46,1.41-5.35-1.73,2.91-8.99,5.35,1.73-.45,1.39-3.94-1.28Z"/><path class="c" d="M121.01,18.78l1.42-.28c.08,.85,.62,1.56,1.44,1.94,.97,.44,1.91,.31,2.21-.35,.36-.79-.55-1.79-1.36-2.68-.8-.91-1.69-1.94-1.07-3.29,.64-1.41,2.32-1.83,3.86-1.13,1.23,.56,1.87,1.57,1.8,2.68l-1.32,.23c0-.7-.44-1.3-1.07-1.58-.79-.36-1.64-.16-1.92,.45-.31,.67,.38,1.28,1.22,2.2,1.09,1.22,1.85,2.36,1.23,3.71-.7,1.53-2.47,1.9-4.21,1.11-1.41-.65-2.18-1.8-2.22-3.02Z"/><path class="c" d="M132.62,15.79l1.29,.73-4.67,8.21-1.29-.73,4.67-8.21Z"/><path class="c" d="M141.21,27.5c-1.64,2.28-4.33,2.53-6.33,1.09-2.23-1.61-2.72-4.66-1.16-6.84,1.57-2.18,4.64-2.69,6.82-1.13,.96,.7,1.73,1.96,1.95,3.19l-1.39,.52c-.17-1.02-.72-1.98-1.45-2.5-1.4-1.01-3.57-.79-4.71,.8-1.08,1.5-.78,3.6,.86,4.78,1.32,.95,2.89,.86,3.73-.32l.02-.02-2.38-1.71,.79-1.1,3.63,2.61c-.11,.19-.25,.41-.4,.62Z"/><path class="c" d="M152.01,30.87l-6.74,6.88-.05-.05,.1-8.74-4.31,4.4-1.06-1.04,6.73-6.88,.05,.05-.1,8.72,4.31-4.4,1.06,1.04Z"/><path class="c" d="M166.38,110.14l-2.35-.91-1.29,3.33-1.38-.53,1.29-3.33-3.73-1.44,.53-1.38,8.83,3.41-2.03,5.24-1.38-.53,1.49-3.86Z"/><path class="c" d="M154.31,117.28l4.42-.54,.54-1.03-3.23-1.71,.69-1.31,8.36,4.4-1.37,2.6c-.82,1.56-2.69,2.2-4.18,1.41-1.08-.57-1.65-1.76-1.46-2.88l-4.63,.67,.85-1.61Zm5.36,.31c-.42,.79-.13,1.78,.62,2.17,.78,.41,1.71,.04,2.11-.73l.69-1.32-2.73-1.44-.69,1.32Z"/><path class="c" d="M156.78,122.57c2.18,1.59,2.66,4.66,1.07,6.83-1.58,2.17-4.66,2.65-6.84,1.05-2.16-1.58-2.63-4.65-1.04-6.82,1.58-2.17,4.65-2.64,6.8-1.06Zm-4.87,6.68c1.51,1.1,3.64,.77,4.74-.74,1.1-1.5,.77-3.63-.74-4.73-1.5-1.1-3.62-.77-4.72,.74-1.1,1.5-.78,3.63,.72,4.73Z"/><path class="c" d="M147.32,141.09l-6.83-6.8,.05-.05,8.74,.17-4.37-4.34,1.05-1.05,6.82,6.79-.05,.05-8.72-.17,4.37,4.34-1.05,1.06Z"/><path class="c" d="M139.04,145.8l2-1.55-4.88-6.29,1.17-.91,4.88,6.29,2-1.55,.9,1.16-5.17,4.01-.9-1.16Z"/><path class="c" d="M135.62,148.03l-1.26-2.06-3.05,1.86-.77-1.26,3.05-1.86-1.36-2.23-3.53,2.15-.77-1.26,4.8-2.93,4.91,8.05-4.8,2.93-.76-1.24,3.53-2.15Z"/><path class="c" d="M123.04,156.11l-3.91-8.8,.06-.03,8.08,3.31-2.5-5.62,1.35-.6,3.9,8.79-.07,.03-8.06-3.31,2.5,5.62-1.36,.6Z"/><path class="c" d="M111.04,154.82c-.79-2.79,.51-5.05,3.4-5.86l2.59-.73,2.58,9.1-2.59,.73c-2.89,.82-5.18-.42-5.98-3.23Zm1.45-.4c.55,1.93,2.14,2.78,4.14,2.22l1.16-.33-1.77-6.26-1.18,.33c-1.99,.56-2.89,2.12-2.35,4.04Z"/><path class="c" d="M96.66,156.56c-.22-2.89,1.5-4.84,4.49-5.07l2.68-.21,.72,9.41-2.68,.21c-2.99,.23-4.99-1.43-5.21-4.34Zm1.5-.11c.15,2,1.54,3.15,3.61,2.99l1.2-.09-.5-6.47-1.22,.09c-2.06,.16-3.25,1.5-3.1,3.48Z"/><path class="c" d="M92.58,159.72l.11-2.41-3.57-.17,.07-1.47,3.57,.17,.12-2.61-4.13-.19,.07-1.47,5.61,.26-.44,9.43-5.61-.26,.07-1.46,4.13,.19Z"/><path class="c" d="M77.19,159.27l5.97-8.73,.1,.02,2.6,10.25-1.55-.27-1.66-6.79-3.9,5.8-1.57-.28Z"/><path class="c" d="M73.6,156.7l.72-2.31-3.41-1.06,.44-1.41,3.42,1.06,.78-2.5-3.96-1.23,.44-1.41,5.38,1.67-2.8,9.02-5.37-1.67,.43-1.39,3.96,1.23Z"/><path class="c" d="M64.25,146.18l.59-1.35,5.22,2.27-3.77,8.65-1.36-.59,3.18-7.3-3.86-1.68Z"/><path class="c" d="M61.6,148.56c-1.39,2.3-4.41,3.05-6.71,1.66-2.29-1.39-3.04-4.41-1.64-6.71,1.38-2.28,4.4-3.02,6.7-1.63,2.29,1.39,3.03,4.39,1.65,6.68Zm-7.08-4.27c-.97,1.6-.45,3.69,1.15,4.65,1.59,.96,3.68,.45,4.64-1.15,.96-1.59,.45-3.67-1.15-4.63-1.59-.96-3.68-.46-4.65,1.13Z"/><path class="c" d="M48.28,145.63l-2.45-2c-1.42-1.16-1.69-3.19-.61-4.52,1.06-1.3,3.09-1.42,4.5-.27l1.3,1.06,2.07-2.54,1.15,.94-5.97,7.32Zm-1.91-5.57c-.57,.7-.39,1.79,.39,2.43l1.3,1.06,2.04-2.5-1.29-1.06c-.78-.65-1.88-.61-2.44,.08Z"/><path class="c" d="M34.6,132.85l7.1-6.53,1,1.09-3.85,3.55,5.86-1.13h0l-1.62,5.76,3.86-3.55,1,1.09-7.1,6.53-.08-.08,1.99-7.97-8.11,1.33-.07-.08Z"/><path class="c" d="M32.98,127.76l1.99-1.37-2.03-2.94,1.21-.84,2.03,2.94,2.15-1.48-2.35-3.4,1.21-.84,3.19,4.62-7.76,5.36-3.19-4.62,1.2-.83,2.35,3.41Z"/><path class="c" d="M24.2,115.65l8.57-4.4,.03,.06-2.86,8.25,5.48-2.81,.68,1.32-8.56,4.39-.03-.07,2.85-8.24-5.48,2.81-.68-1.32Z"/><path class="c" d="M22.29,106.29l.85,2.38,7.5-2.68,.5,1.4-7.5,2.68,.85,2.38-1.38,.49-2.21-6.16,1.38-.5Z"/></g><g><path class="e" d="M69.62,83.98h-25.66c0,6.82,.78,13.63,2.33,20.46,8.23,1.76,16.45,3.07,24.65,3.95-.87-8.14-1.31-16.27-1.31-24.4Z"/><path class="e" d="M46.28,104.44c1.61,7.07,4.06,14.15,7.33,21.26,7.1,3.27,14.19,5.72,21.26,7.33-1.76-8.23-3.07-16.45-3.95-24.65-8.2-.88-16.41-2.19-24.65-3.95Z"/><path class="e" d="M146.71,83.98h12.4c0-6.07-.85-11.95-2.44-17.52-4.1-1.09-8.2-2.07-12.29-2.94,1.55,6.83,2.33,13.64,2.33,20.46Z"/><path class="e" d="M74.87,34.93c-7.07,1.61-14.15,4.06-21.26,7.33-3.27,7.1-5.72,14.19-7.33,21.26,8.23-1.76,16.45-3.07,24.65-3.95,.88-8.2,2.19-16.41,3.95-24.65Z"/><path class="e" d="M70.93,108.38c.88,8.2,2.19,16.41,3.95,24.65,6.83,1.55,13.64,2.33,20.46,2.33v-25.66c-8.13,0-16.26-.44-24.4-1.31Z"/><path class="e" d="M121.05,83.98c0,8.13-.44,16.26-1.31,24.4,8.2-.88,16.41-2.19,24.65-3.95,1.55-6.83,2.33-13.64,2.33-20.46h-25.66Z"/><path class="e" d="M115.79,133.03c7.07-1.61,14.16-4.06,21.26-7.33,3.27-7.1,5.72-14.19,7.33-21.26-8.23,1.76-16.45,3.07-24.65,3.95-.88,8.2-2.19,16.41-3.95,24.65Z"/><path class="e" d="M95.33,109.69v25.66c6.82,0,13.63-.78,20.46-2.33,1.76-8.23,3.07-16.45,3.95-24.65-8.14,.87-16.27,1.31-24.4,1.31Z"/><path class="e" d="M70.93,59.58c-8.2,.88-16.41,2.19-24.65,3.95-1.55,6.83-2.33,13.64-2.33,20.46h25.66c0-8.13,.44-16.26,1.31-24.4Z"/><path class="e" d="M95.33,109.69c8.13,0,16.26-.44,24.4-1.31,.87-8.14,1.31-16.27,1.31-24.4h-25.71v25.71Z"/><path class="e" d="M95.33,58.26v-25.66c-6.82,0-13.63,.78-20.46,2.33-1.76,8.23-3.07,16.45-3.95,24.65,8.14-.87,16.27-1.31,24.4-1.31Z"/><path class="e" d="M95.33,58.26v25.71h25.71c0-8.13-.44-16.26-1.31-24.4-8.14-.87-16.27-1.31-24.4-1.31Z"/><path class="e" d="M95.33,58.26c-8.13,0-16.26,.44-24.4,1.31-.87,8.14-1.31,16.27-1.31,24.4,8.57,0,17.14,0,25.71,0v-25.71Z"/><path class="e" d="M69.62,83.98c0,8.13,.44,16.26,1.31,24.4,8.14,.87,16.27,1.31,24.4,1.31v-25.71c-8.57,0-17.14,0-25.71,0Z"/><path class="e" d="M119.73,59.58c-.88-8.2-2.19-16.41-3.95-24.65-6.83-1.55-13.64-2.33-20.46-2.33v25.66c8.13,0,16.26,.44,24.4,1.31Z"/><path class="e" d="M144.38,63.52c-1.61-7.07-4.06-14.16-7.33-21.26-7.1-3.27-14.19-5.72-21.26-7.33,1.76,8.23,3.07,16.45,3.95,24.65,8.2,.88,16.41,2.19,24.65,3.95Z"/><path class="e" d="M121.05,83.98h25.66c0-6.82-.78-13.63-2.33-20.46-8.23-1.76-16.45-3.07-24.65-3.95,.87,8.14,1.31,16.27,1.31,24.4Z"/><path class="e" d="M144.38,104.44c4.09-.87,8.19-1.85,12.29-2.94,1.59-5.57,2.44-11.44,2.44-17.52h-12.4c0,6.82-.78,13.63-2.33,20.46Z"/><path class="e" d="M95.33,135.36v12.4c6.07,0,11.95-.85,17.52-2.44,1.09-4.1,2.07-8.2,2.94-12.29-6.83,1.55-13.64,2.33-20.46,2.33Z"/><path class="e" d="M74.87,133.03c.87,4.09,1.85,8.19,2.94,12.29,5.57,1.59,11.44,2.44,17.52,2.44h0v-12.4c-6.82,0-13.63-.78-20.46-2.33Z"/><path class="e" d="M46.28,104.44c-4.09-.87-8.19-1.85-12.29-2.94,1.91,6.69,4.88,12.93,8.73,18.53,3.64,2.11,7.27,4,10.9,5.67-3.27-7.1-5.72-14.19-7.33-21.26Z"/><path class="e" d="M42.71,120.03c4.46,6.49,10.08,12.11,16.57,16.57-2.11-3.64-4-7.27-5.67-10.9-3.63-1.67-7.26-3.56-10.9-5.67Z"/><path class="e" d="M53.61,125.7c1.67,3.63,3.56,7.26,5.67,10.9,5.6,3.84,11.84,6.82,18.53,8.73-1.09-4.1-2.07-8.2-2.94-12.29-7.07-1.61-14.15-4.06-21.26-7.33Z"/><path class="e" d="M144.38,104.44c-1.61,7.07-4.06,14.15-7.33,21.26,3.63-1.67,7.26-3.56,10.9-5.67,3.84-5.6,6.82-11.84,8.73-18.53-4.1,1.09-8.2,2.07-12.29,2.94Z"/><path class="e" d="M115.79,133.03c-.87,4.09-1.85,8.19-2.94,12.29,6.69-1.91,12.93-4.88,18.53-8.73,2.11-3.64,4-7.27,5.67-10.9-7.1,3.27-14.19,5.72-21.26,7.33Z"/><path class="e" d="M131.38,136.6c6.49-4.46,12.11-10.08,16.57-16.57-3.64,2.11-7.27,4-10.9,5.67-1.67,3.63-3.56,7.26-5.67,10.9Z"/><path class="e" d="M43.95,83.98h-12.4c0,6.07,.85,11.95,2.44,17.52,4.1,1.09,8.2,2.07,12.29,2.94-1.55-6.83-2.33-13.64-2.33-20.46Z"/><path class="e" d="M137.05,42.26c-1.67-3.63-3.56-7.26-5.67-10.9-5.6-3.84-11.84-6.82-18.53-8.73,1.09,4.1,2.07,8.2,2.94,12.29,7.07,1.61,14.16,4.06,21.26,7.33Z"/><path class="e" d="M95.33,32.6v0c6.82,0,13.63,.78,20.46,2.33-.87-4.09-1.85-8.19-2.94-12.29-5.57-1.59-11.44-2.44-17.52-2.44s-11.95,.85-17.52,2.44c-1.09,4.1-2.07,8.2-2.94,12.29,6.83-1.55,13.64-2.33,20.46-2.33Z"/><path class="e" d="M74.87,34.93c.87-4.09,1.85-8.19,2.94-12.29-6.69,1.91-12.93,4.88-18.53,8.73-2.11,3.64-4,7.27-5.67,10.9,7.1-3.27,14.19-5.72,21.26-7.33Z"/><path class="e" d="M144.38,63.52c4.09,.87,8.19,1.85,12.29,2.94-1.91-6.69-4.88-12.93-8.73-18.53-3.64-2.11-7.27-4-10.9-5.67,3.27,7.1,5.72,14.19,7.33,21.26Z"/><path class="e" d="M147.95,47.93c-4.46-6.49-10.08-12.11-16.57-16.57,2.11,3.64,4,7.27,5.67,10.9,3.63,1.67,7.26,3.56,10.9,5.67Z"/><path class="e" d="M46.28,63.52c-4.09,.87-8.19,1.85-12.29,2.94-1.59,5.57-2.44,11.44-2.44,17.52h12.4c0-6.82,.78-13.63,2.33-20.46Z"/><path class="e" d="M53.61,42.26c-3.63,1.67-7.26,3.56-10.9,5.67-3.84,5.6-6.82,11.84-8.73,18.53,4.1-1.09,8.2-2.07,12.29-2.94,1.61-7.07,4.06-14.16,7.33-21.26Z"/><path class="e" d="M59.28,31.36c-6.49,4.46-12.11,10.08-16.57,16.57,3.64-2.11,7.27-4,10.9-5.67,1.67-3.63,3.56-7.26,5.67-10.9Z"/></g><rect class="d" x="1" y="68.77" width="189.72" height="29.29" rx="14.64" ry="14.64"/><g><path class="b" d="M65.13,88.92v-6l-5.25,3.38h-.37l-5.22-3.33v5.95h-3.01v-11.01h.38l8.04,5.17,8.07-5.17h.37v11.01h-3.01Z"/><path class="b" d="M80.66,78.03l7.19,10.88h-3.75l-1.17-1.92-3.78-6.26-3.81,6.26-1.2,1.92h-3.67l7.2-10.88m1.47,2.71"/><path class="b" d="M100.08,88.92h-9.89v-10.79h9.89c2.03,0,3.83,.78,3.83,2.69,0,.93-.61,1.67-1.39,1.86,1.2,.18,2.32,1.07,2.32,2.58,0,2.56-2.19,3.67-4.75,3.67Zm-.56-8.53h-6.32v1.6h6.34c.77,0,1.28-.27,1.28-.82,0-.58-.53-.78-1.3-.78Zm.05,3.83h-6.37v2.45h6.47c1.36,0,2.06-.4,2.06-1.3,0-.75-.58-1.15-2.16-1.15Z"/><path class="b" d="M117.51,88.92l-3.7-4.02h-3.27v4.02h-3.01v-10.79h9.91c2.06,0,3.83,1.07,3.83,3.31,0,2.03-1.5,3.2-3.41,3.3h-.48l4.15,4.18h-4.02Zm-.77-8.52h-6.19v2.35h6.31c.85,0,1.47-.37,1.47-1.22,0-.74-.64-1.14-1.58-1.14Z"/><path class="b" d="M136.69,88.92l-1.17-1.92-3.78-6.26-3.81,6.26-1.2,1.92h-3.67l7.2-10.88h2.98l7.19,10.88h-3.75Zm-4.95-8.18"/></g></svg>