<?xml version="1.0" encoding="UTF-8"?><svg id="a" xmlns="http://www.w3.org/2000/svg" viewBox="0 0 191.72 31.29"><defs><style>.b{fill:#fff;}.c{fill:#f05c55;stroke:#fff;stroke-miterlimit:1;stroke-width:2px;}</style></defs><rect class="c" x="1" y="1" width="189.72" height="29.29" rx="14.64" ry="14.64"/><g><path class="b" d="M65.13,21.15v-6l-5.25,3.38h-.37l-5.22-3.33v5.95h-3.01V10.14h.38l8.04,5.17,8.07-5.17h.37v11.01h-3.01Z"/><path class="b" d="M80.66,10.26l7.19,10.88h-3.75l-1.17-1.92-3.78-6.26-3.81,6.26-1.2,1.92h-3.67l7.2-10.88m1.47,2.71"/><path class="b" d="M100.08,21.15h-9.89V10.36h9.89c2.03,0,3.83,.78,3.83,2.69,0,.93-.61,1.67-1.39,1.86,1.2,.18,2.32,1.07,2.32,2.58,0,2.56-2.19,3.67-4.75,3.67Zm-.56-8.53h-6.32v1.6h6.34c.77,0,1.28-.27,1.28-.82,0-.58-.53-.78-1.3-.78Zm.05,3.83h-6.37v2.45h6.47c1.36,0,2.06-.4,2.06-1.3,0-.75-.58-1.15-2.16-1.15Z"/><path class="b" d="M117.51,21.15l-3.7-4.02h-3.27v4.02h-3.01V10.36h9.91c2.06,0,3.83,1.07,3.83,3.31,0,2.03-1.5,3.2-3.41,3.3h-.48l4.15,4.18h-4.02Zm-.77-8.52h-6.19v2.35h6.31c.85,0,1.47-.37,1.47-1.22,0-.74-.64-1.14-1.58-1.14Z"/><path class="b" d="M136.69,21.15l-1.17-1.92-3.78-6.26-3.81,6.26-1.2,1.92h-3.67l7.2-10.88h2.98l7.19,10.88h-3.75Zm-4.95-8.18"/></g></svg>