<?xml version="1.0" encoding="UTF-8"?><svg id="a" xmlns="http://www.w3.org/2000/svg" viewBox="0 0 222.89 222.89"><defs><style>.b{fill:#f05c55;}.c{font-family:LEMONMILK-Regular, LEMON MILK;font-size:12px;}.c,.d{fill:#fff;}.e{fill:none;stroke:#fff;stroke-miterlimit:10;}.e,.d{stroke-width:2px;}.d{stroke:#f05c55;stroke-linecap:round;stroke-miterlimit:1;}</style></defs><circle class="b" cx="111.76" cy="111.78" r="83.98"/><text class="c" transform="translate(61.68 64.65) rotate(-42.48)"><tspan x="0" y="0">G</tspan></text><text class="c" transform="translate(69.73 57.43) rotate(-34.36)"><tspan x="0" y="0">r</tspan></text><text class="c" transform="translate(76.75 52.63) rotate(-26.65)"><tspan x="0" y="0">a</tspan></text><text class="c" transform="translate(85.49 48.34) rotate(-19.09)"><tspan x="0" y="0">p</tspan></text><text class="c" transform="translate(93.23 45.65) rotate(-11.7)"><tspan x="0" y="0">h</tspan></text><text class="c" transform="translate(102.47 43.9) rotate(-6.15)"><tspan x="0" y="0">i</tspan></text><text class="c" transform="translate(106.32 43.38) rotate(-.58)"><tspan x="0" y="0">c</tspan></text><text class="c" transform="translate(115.75 43.44) rotate(5.06)"><tspan x="0" y="0"> </tspan></text><text class="c" transform="translate(119.86 43.7) rotate(10.78)"><tspan x="0" y="0">d</tspan></text><text class="c" transform="translate(129.11 45.55) rotate(17.98)"><tspan x="0" y="0">e</tspan></text><text class="c" transform="translate(136.42 47.95) rotate(24.57)"><tspan x="0" y="0">s</tspan></text><text class="c" transform="translate(143.59 51.35) rotate(29.57)"><tspan x="0" y="0">i</tspan></text><text class="c" transform="translate(147.03 53.12) rotate(35.8)"><tspan x="0" y="0">g</tspan></text><text class="c" transform="translate(155.74 59.49) rotate(44.37)"><tspan x="0" y="0">n</tspan></text><text class="c" transform="translate(162.74 66.59) rotate(50.24)"><tspan x="0" y="0"> </tspan></text><text class="c" transform="translate(165.4 69.81) rotate(53.75)"><tspan x="0" y="0"> </tspan></text><text class="c" transform="translate(167.82 73.15) rotate(57.25)"><tspan x="0" y="0"> </tspan></text><text class="c" transform="translate(170.07 76.68) rotate(60.79)"><tspan x="0" y="0"> </tspan></text><text class="c" transform="translate(172.07 80.31) rotate(64.3)"><tspan x="0" y="0"> </tspan></text><text class="c" transform="translate(173.87 84.08) rotate(67.84)"><tspan x="0" y="0"> </tspan></text><text class="c" transform="translate(175.42 87.94) rotate(71.34)"><tspan x="0" y="0"> </tspan></text><text class="c" transform="translate(176.73 91.89) rotate(74.85)"><tspan x="0" y="0"> </tspan></text><text class="c" transform="translate(177.8 95.91) rotate(78.34)"><tspan x="0" y="0"> </tspan></text><text class="c" transform="translate(178.62 100) rotate(81.84)"><tspan x="0" y="0"> </tspan></text><text class="c" transform="translate(179.19 104.12) rotate(85.32)"><tspan x="0" y="0"> </tspan></text><text class="c" transform="translate(179.51 108.25) rotate(88.78)"><tspan x="0" y="0"> </tspan></text><text class="c" transform="translate(179.58 112.44) rotate(92.28)"><tspan x="0" y="0"> </tspan></text><text class="c" transform="translate(179.4 116.57) rotate(95.75)"><tspan x="0" y="0"> </tspan></text><text class="c" transform="translate(178.96 120.73) rotate(99.25)"><tspan x="0" y="0"> </tspan></text><text class="c" transform="translate(178.27 124.83) rotate(102.74)"><tspan x="0" y="0"> </tspan></text><text class="c" transform="translate(177.33 128.89) rotate(106.25)"><tspan x="0" y="0"> </tspan></text><text class="c" transform="translate(176.23 132.84) rotate(111.11)"><tspan x="0" y="0">f</tspan></text><text class="c" transform="translate(173.59 139.69) rotate(117.83)"><tspan x="0" y="0">r</tspan></text><text class="c" transform="translate(169.68 147.22) rotate(126.11)"><tspan x="0" y="0">o</tspan></text><text class="c" transform="translate(163.03 156.18) rotate(134.85)"><tspan x="0" y="0">n</tspan></text><text class="c" transform="translate(155.98 163.13) rotate(142.16)"><tspan x="0" y="0">t</tspan></text><text class="c" transform="translate(149.94 167.79) rotate(148.63)"><tspan x="0" y="0">e</tspan></text><text class="c" transform="translate(143.39 171.82) rotate(156.09)"><tspan x="0" y="0">n</tspan></text><text class="c" transform="translate(134.34 175.78) rotate(164.21)"><tspan x="0" y="0">d</tspan></text><text class="c" transform="translate(125.19 178.2) rotate(169.89)"><tspan x="0" y="0"> </tspan></text><text class="c" transform="translate(121.16 179.03) rotate(175.58)"><tspan x="0" y="0">d</tspan></text><text class="c" transform="translate(111.77 179.67) rotate(-177.29)"><tspan x="0" y="0">e</tspan></text><text class="c" transform="translate(104.07 179.33) rotate(-170.04)"><tspan x="0" y="0">v</tspan></text><text class="c" transform="translate(94.68 177.59) rotate(-162.81)"><tspan x="0" y="0">e</tspan></text><text class="c" transform="translate(87.32 175.27) rotate(-156.4)"><tspan x="0" y="0">l</tspan></text><text class="c" transform="translate(80.86 172.58) rotate(-148.88)"><tspan x="0" y="0">o</tspan></text><text class="c" transform="translate(71.38 166.69) rotate(-140.77)"><tspan x="0" y="0">p</tspan></text><text class="c" transform="translate(65.01 161.59) rotate(-132.61)"><tspan x="0" y="0">m</tspan></text><text class="c" transform="translate(57.33 153) rotate(-124.57)"><tspan x="0" y="0">e</tspan></text><text class="c" transform="translate(52.93 146.69) rotate(-117.11)"><tspan x="0" y="0">n</tspan></text><text class="c" transform="translate(48.52 137.83) rotate(-109.72)"><tspan x="0" y="0">t</tspan></text><g><path class="e" d="M86.05,111.78h-25.66c0,6.82,.78,13.63,2.33,20.46,8.23,1.76,16.45,3.07,24.65,3.95-.87-8.14-1.31-16.27-1.31-24.4Z"/><path class="e" d="M62.71,132.24c1.61,7.07,4.06,14.15,7.33,21.26,7.1,3.27,14.19,5.72,21.26,7.33-1.76-8.23-3.07-16.45-3.95-24.65-8.2-.88-16.41-2.19-24.65-3.95Z"/><path class="e" d="M163.14,111.78h12.4c0-6.07-.85-11.95-2.44-17.52-4.1-1.09-8.2-2.07-12.29-2.94,1.55,6.83,2.33,13.64,2.33,20.46Z"/><path class="e" d="M91.3,62.73c-7.07,1.61-14.15,4.06-21.26,7.33-3.27,7.1-5.72,14.19-7.33,21.26,8.23-1.76,16.45-3.07,24.65-3.95,.88-8.2,2.19-16.41,3.95-24.65Z"/><path class="e" d="M87.36,136.19c.88,8.2,2.19,16.41,3.95,24.65,6.83,1.55,13.64,2.33,20.46,2.33v-25.66c-8.13,0-16.26-.44-24.4-1.31Z"/><path class="e" d="M137.48,111.78c0,8.13-.44,16.26-1.31,24.4,8.2-.88,16.41-2.19,24.65-3.95,1.55-6.83,2.33-13.64,2.33-20.46h-25.66Z"/><path class="e" d="M132.22,160.83c7.07-1.61,14.16-4.06,21.26-7.33,3.27-7.1,5.72-14.19,7.33-21.26-8.23,1.76-16.45,3.07-24.65,3.95-.88,8.2-2.19,16.41-3.95,24.65Z"/><path class="e" d="M111.76,137.5v25.66c6.82,0,13.63-.78,20.46-2.33,1.76-8.23,3.07-16.45,3.95-24.65-8.14,.87-16.27,1.31-24.4,1.31Z"/><path class="e" d="M87.36,87.38c-8.2,.88-16.41,2.19-24.65,3.95-1.55,6.83-2.33,13.64-2.33,20.46h25.66c0-8.13,.44-16.26,1.31-24.4Z"/><path class="e" d="M111.76,137.5c8.13,0,16.26-.44,24.4-1.31,.87-8.14,1.31-16.27,1.31-24.4h-25.71v25.71Z"/><path class="e" d="M111.76,86.07v-25.66c-6.82,0-13.63,.78-20.46,2.33-1.76,8.23-3.07,16.45-3.95,24.65,8.14-.87,16.27-1.31,24.4-1.31Z"/><path class="e" d="M111.76,86.07v25.71h25.71c0-8.13-.44-16.26-1.31-24.4-8.14-.87-16.27-1.31-24.4-1.31Z"/><path class="e" d="M111.76,86.07c-8.13,0-16.26,.44-24.4,1.31-.87,8.14-1.31,16.27-1.31,24.4,8.57,0,17.14,0,25.71,0v-25.71Z"/><path class="e" d="M86.05,111.78c0,8.13,.44,16.26,1.31,24.4,8.14,.87,16.27,1.31,24.4,1.31v-25.71c-8.57,0-17.14,0-25.71,0Z"/><path class="e" d="M136.16,87.38c-.88-8.2-2.19-16.41-3.95-24.65-6.83-1.55-13.64-2.33-20.46-2.33v25.66c8.13,0,16.26,.44,24.4,1.31Z"/><path class="e" d="M160.81,91.33c-1.61-7.07-4.06-14.16-7.33-21.26-7.1-3.27-14.19-5.72-21.26-7.33,1.76,8.23,3.07,16.45,3.95,24.65,8.2,.88,16.41,2.19,24.65,3.95Z"/><path class="e" d="M137.48,111.78h25.66c0-6.82-.78-13.63-2.33-20.46-8.23-1.76-16.45-3.07-24.65-3.95,.87,8.14,1.31,16.27,1.31,24.4Z"/><path class="e" d="M160.81,132.24c4.09-.87,8.19-1.85,12.29-2.94,1.59-5.57,2.44-11.44,2.44-17.52h-12.4c0,6.82-.78,13.63-2.33,20.46Z"/><path class="e" d="M111.76,163.16v12.4c6.07,0,11.95-.85,17.52-2.44,1.09-4.1,2.07-8.2,2.94-12.29-6.83,1.55-13.64,2.33-20.46,2.33Z"/><path class="e" d="M91.3,160.83c.87,4.09,1.85,8.19,2.94,12.29,5.57,1.59,11.44,2.44,17.52,2.44h0v-12.4c-6.82,0-13.63-.78-20.46-2.33Z"/><path class="e" d="M62.71,132.24c-4.09-.87-8.19-1.85-12.29-2.94,1.91,6.69,4.88,12.93,8.73,18.53,3.64,2.11,7.27,4,10.9,5.67-3.27-7.1-5.72-14.19-7.33-21.26Z"/><path class="e" d="M59.14,147.83c4.46,6.49,10.08,12.11,16.57,16.57-2.11-3.64-4-7.27-5.67-10.9-3.63-1.67-7.26-3.56-10.9-5.67Z"/><path class="e" d="M70.04,153.5c1.67,3.63,3.56,7.26,5.67,10.9,5.6,3.84,11.84,6.82,18.53,8.73-1.09-4.1-2.07-8.2-2.94-12.29-7.07-1.61-14.15-4.06-21.26-7.33Z"/><path class="e" d="M160.81,132.24c-1.61,7.07-4.06,14.15-7.33,21.26,3.63-1.67,7.26-3.56,10.9-5.67,3.84-5.6,6.82-11.84,8.73-18.53-4.1,1.09-8.2,2.07-12.29,2.94Z"/><path class="e" d="M132.22,160.83c-.87,4.09-1.85,8.19-2.94,12.29,6.69-1.91,12.93-4.88,18.53-8.73,2.11-3.64,4-7.27,5.67-10.9-7.1,3.27-14.19,5.72-21.26,7.33Z"/><path class="e" d="M147.81,164.4c6.49-4.46,12.11-10.08,16.57-16.57-3.64,2.11-7.27,4-10.9,5.67-1.67,3.63-3.56,7.26-5.67,10.9Z"/><path class="e" d="M60.38,111.78h-12.4c0,6.07,.85,11.95,2.44,17.52,4.1,1.09,8.2,2.07,12.29,2.94-1.55-6.83-2.33-13.64-2.33-20.46Z"/><path class="e" d="M153.48,70.07c-1.67-3.63-3.56-7.26-5.67-10.9-5.6-3.84-11.84-6.82-18.53-8.73,1.09,4.1,2.07,8.2,2.94,12.29,7.07,1.61,14.16,4.06,21.26,7.33Z"/><path class="e" d="M111.76,60.41v0c6.82,0,13.63,.78,20.46,2.33-.87-4.09-1.85-8.19-2.94-12.29-5.57-1.59-11.44-2.44-17.52-2.44s-11.95,.85-17.52,2.44c-1.09,4.1-2.07,8.2-2.94,12.29,6.83-1.55,13.64-2.33,20.46-2.33Z"/><path class="e" d="M91.3,62.73c.87-4.09,1.85-8.19,2.94-12.29-6.69,1.91-12.93,4.88-18.53,8.73-2.11,3.64-4,7.27-5.67,10.9,7.1-3.27,14.19-5.72,21.26-7.33Z"/><path class="e" d="M160.81,91.33c4.09,.87,8.19,1.85,12.29,2.94-1.91-6.69-4.88-12.93-8.73-18.53-3.64-2.11-7.27-4-10.9-5.67,3.27,7.1,5.72,14.19,7.33,21.26Z"/><path class="e" d="M164.38,75.74c-4.46-6.49-10.08-12.11-16.57-16.57,2.11,3.64,4,7.27,5.67,10.9,3.63,1.67,7.26,3.56,10.9,5.67Z"/><path class="e" d="M62.71,91.33c-4.09,.87-8.19,1.85-12.29,2.94-1.59,5.57-2.44,11.44-2.44,17.52h12.4c0-6.82,.78-13.63,2.33-20.46Z"/><path class="e" d="M70.04,70.07c-3.63,1.67-7.26,3.56-10.9,5.67-3.84,5.6-6.82,11.84-8.73,18.53,4.1-1.09,8.2-2.07,12.29-2.94,1.61-7.07,4.06-14.16,7.33-21.26Z"/><path class="e" d="M75.71,59.17c-6.49,4.46-12.11,10.08-16.57,16.57,3.64-2.11,7.27-4,10.9-5.67,1.67-3.63,3.56-7.26,5.67-10.9Z"/></g><rect class="d" x="17.43" y="96.58" width="189.72" height="29.29" rx="14.64" ry="14.64"/><g><path class="b" d="M81.56,116.72v-6l-5.25,3.38h-.37l-5.22-3.33v5.95h-3.01v-11.01h.38l8.04,5.17,8.07-5.17h.37v11.01h-3.01Z"/><path class="b" d="M97.09,105.84l7.19,10.88h-3.75l-1.17-1.92-3.78-6.26-3.81,6.26-1.2,1.92h-3.67l7.2-10.88m1.47,2.71"/><path class="b" d="M116.52,116.72h-9.89v-10.79h9.89c2.03,0,3.83,.78,3.83,2.69,0,.93-.61,1.67-1.39,1.86,1.2,.18,2.32,1.07,2.32,2.58,0,2.56-2.19,3.67-4.75,3.67Zm-.56-8.53h-6.32v1.6h6.34c.77,0,1.28-.27,1.28-.82,0-.58-.53-.78-1.3-.78Zm.05,3.83h-6.37v2.45h6.47c1.36,0,2.06-.4,2.06-1.3,0-.75-.58-1.15-2.16-1.15Z"/><path class="b" d="M133.94,116.72l-3.7-4.02h-3.27v4.02h-3.01v-10.79h9.91c2.06,0,3.83,1.07,3.83,3.31,0,2.03-1.5,3.2-3.41,3.3h-.48l4.15,4.18h-4.02Zm-.77-8.52h-6.19v2.35h6.31c.85,0,1.47-.37,1.47-1.22,0-.74-.64-1.14-1.58-1.14Z"/><path class="b" d="M153.12,116.72l-1.17-1.92-3.78-6.26-3.81,6.26-1.2,1.92h-3.67l7.2-10.88h2.98l7.19,10.88h-3.75Zm-4.95-8.18"/></g></svg>